# xmcd
#
# Track frame offsets: 
#        150
#        18234
#        31736
#        45606
#        61524
#        76002
#        90129
#        106465
#        122296
#        134629
#
# Disc length: 2002 seconds
#
# Revision: 0
# Processed by: cddbd v1.5.2PL0 Copyright (c) Steve Scherf et al.
# Submitted via: ExactAudioCopyFreeDBPlugin 1.0
#
DISCID=6407d00a
DTITLE=อรวี สัจจานนท์ - ไข่มุกบูรพา 3
DYEAR=1900
DGENRE=pop
TTITLE0=ฝนในใจ (เวีย ฟง ซี่ หยี่)
TTITLE1=หมึกสีดำ (หว่อ เหมย หยิว เพี้ยน หนี่)
TTITLE2=ไออุ่นรัก (เสี่ยง หนี่ เสี่ยง ต้วน ฉาง)
TTITLE3=ธารระทม (ฟง ซวง ปั้น หว่อ สิง)
TTITLE4=สะใจเธอหรือยัง (ฟง ฉง น่า หลี่ หลาย)
TTITLE5=ไกลตา ใกล้ใจ (เหยิน เซียน เฉิง โหนง)
TTITLE6=เศษเดนหัวใจ (เซียน เหยน ว่าน หยี่)
TTITLE7=บทเรียนจากรอยน้ำตา (เหยา หย่วน เตอ ลู่)
TTITLE8=ไฟสิ้นเชื้อ (ไหน เหอ)
TTITLE9=ทิ้งลงไฟ (จี่ ตัว ฉอง)
EXTD=
EXTT0=
EXTT1=
EXTT2=
EXTT3=
EXTT4=
EXTT5=
EXTT6=
EXTT7=
EXTT8=
EXTT9=
PLAYORDER=
